<?xml version="1.0" encoding="UTF-8" standalone="no"?>
<!DOCTYPE svg PUBLIC "-//W3C//DTD SVG 1.0//EN" "http://www.w3.org/TR/2001/PR-SVG-20010719/DTD/svg10.dtd">
<svg width="12cm" height="12cm" viewBox="-2 -2 223 233" xmlns="http://www.w3.org/2000/svg" xmlns:xlink="http://www.w3.org/1999/xlink">
  <line style="fill: none; fill-opacity:0; stroke-width: 2; stroke: #000000" x1="30" y1="150" x2="80" y2="230"/>
  <g>
    <polygon style="fill: #d84747" points="0,80 0,0 140,0 "/>
    <polygon style="fill: none; fill-opacity:0; stroke-width: 2; stroke: #000000" points="0,80 0,0 140,0 "/>
  </g>
  <g>
    <polygon style="fill: #a1ce5f" points="160,0 220,0 220,80 20,80 "/>
    <polygon style="fill: none; fill-opacity:0; stroke-width: 2; stroke: #000000" points="160,0 220,0 220,80 20,80 "/>
  </g>
  <g>
    <rect style="fill: #4275e1" x="0" y="100" width="100" height="40"/>
    <rect style="fill: none; fill-opacity:0; stroke-width: 2; stroke: #000000" x="0" y="100" width="100" height="40"/>
  </g>
  <g>
    <rect style="fill: #4275e1" x="120" y="100" width="100" height="40"/>
    <rect style="fill: none; fill-opacity:0; stroke-width: 2; stroke: #000000" x="120" y="100" width="100" height="40"/>
  </g>
  <g>
    <polygon style="fill: #a1ce5f" points="0,150 30,150 80,230 0,230 "/>
    <polygon style="fill: none; fill-opacity:0; stroke-width: 2; stroke: #000000" points="0,150 30,150 80,230 0,230 "/>
  </g>
  <g>
    <polygon style="fill: #a1ce5f" points="50,150 220,150 220,230 100,230 "/>
    <polygon style="fill: none; fill-opacity:0; stroke-width: 2; stroke: #000000" points="50,150 220,150 220,230 100,230 "/>
  </g>
</svg>
